<svg xmlns="http://www.w3.org/2000/svg" width="55.453" height="55.441" viewBox="0 0 55.453 55.441">
  <path id="Icon_awesome-instagram" data-name="Icon awesome-instagram" d="M27.727,15.744A14.214,14.214,0,1,0,41.942,29.958,14.192,14.192,0,0,0,27.727,15.744Zm0,23.455a9.241,9.241,0,1,1,9.241-9.241A9.258,9.258,0,0,1,27.727,39.2ZM45.838,15.162a3.315,3.315,0,1,1-3.315-3.315A3.308,3.308,0,0,1,45.838,15.162Zm9.414,3.365c-.21-4.441-1.225-8.375-4.478-11.616S43.6,2.655,39.158,2.433c-4.577-.26-18.3-.26-22.874,0C11.855,2.643,7.921,3.657,4.668,6.9S.412,14.074.19,18.515c-.26,4.577-.26,18.3,0,22.874C.4,45.83,1.414,49.764,4.668,53.005s7.175,4.256,11.616,4.478c4.577.26,18.3.26,22.874,0,4.441-.21,8.375-1.225,11.616-4.478s4.256-7.175,4.478-11.616c.26-4.577.26-18.284,0-22.862ZM49.339,46.3a9.356,9.356,0,0,1-5.27,5.27c-3.649,1.447-12.309,1.113-16.342,1.113s-12.7.322-16.342-1.113a9.356,9.356,0,0,1-5.27-5.27C4.668,42.651,5,33.991,5,29.958s-.322-12.7,1.113-16.342a9.356,9.356,0,0,1,5.27-5.27C15.035,6.9,23.694,7.232,27.727,7.232s12.705-.322,16.342,1.113a9.356,9.356,0,0,1,5.27,5.27c1.447,3.649,1.113,12.309,1.113,16.342S50.787,42.663,49.339,46.3Z" transform="translate(0.005 -2.238)"/>
</svg>
