<svg xmlns="http://www.w3.org/2000/svg" width="55.453" height="45.124" viewBox="0 0 55.453 45.124">
  <path id="Icon_ionic-logo-twitter" data-name="Icon ionic-logo-twitter" d="M56.866,9.847a23,23,0,0,1-6.534,1.8,11.417,11.417,0,0,0,5.006-6.3,22.606,22.606,0,0,1-7.227,2.761,11.373,11.373,0,0,0-19.683,7.779,11.138,11.138,0,0,0,.294,2.6A32.242,32.242,0,0,1,5.268,6.58,11.4,11.4,0,0,0,8.8,21.786a11.112,11.112,0,0,1-5.17-1.422V20.5a11.387,11.387,0,0,0,9.131,11.163,11.452,11.452,0,0,1-3,.4,10.733,10.733,0,0,1-2.139-.212,11.4,11.4,0,0,0,10.635,7.908A22.81,22.81,0,0,1,4.128,44.641a23.06,23.06,0,0,1-2.714-.165,31.8,31.8,0,0,0,17.415,5.147c20.952,0,32.4-17.356,32.4-32.409,0-.494-.012-.987-.035-1.469A23.159,23.159,0,0,0,56.866,9.847Z" transform="translate(-1.413 -4.5)"/>
</svg>
